<mxfile host="Electron" agent="Mozilla/5.0 (Windows NT 10.0; Win64; x64) AppleWebKit/537.36 (KHTML, like Gecko) draw.io/25.0.2 Chrome/128.0.6613.186 Electron/32.2.5 Safari/537.36" version="25.0.2">
  <diagram name="Page-1" id="lfncOso4ZVJQIX-9vAAf">
    <mxGraphModel dx="1795" dy="1097" grid="1" gridSize="10" guides="1" tooltips="1" connect="1" arrows="1" fold="1" page="0" pageScale="1" pageWidth="850" pageHeight="1100" math="0" shadow="0">
      <root>
        <mxCell id="0" />
        <mxCell id="1" parent="0" />
        <mxCell id="cHUV-iPteI2CGq9O3fU3-51" value="" style="rounded=0;whiteSpace=wrap;html=1;" vertex="1" parent="1">
          <mxGeometry x="-370" y="-50" width="950" height="570" as="geometry" />
        </mxCell>
        <mxCell id="cHUV-iPteI2CGq9O3fU3-6" style="edgeStyle=orthogonalEdgeStyle;rounded=0;orthogonalLoop=1;jettySize=auto;html=1;entryX=0.5;entryY=0;entryDx=0;entryDy=0;" edge="1" parent="1" source="cHUV-iPteI2CGq9O3fU3-1" target="cHUV-iPteI2CGq9O3fU3-2">
          <mxGeometry relative="1" as="geometry" />
        </mxCell>
        <mxCell id="cHUV-iPteI2CGq9O3fU3-1" value="Start" style="strokeWidth=2;html=1;shape=mxgraph.flowchart.start_2;whiteSpace=wrap;" vertex="1" parent="1">
          <mxGeometry x="-305" width="100" height="40" as="geometry" />
        </mxCell>
        <mxCell id="cHUV-iPteI2CGq9O3fU3-7" style="edgeStyle=orthogonalEdgeStyle;rounded=0;orthogonalLoop=1;jettySize=auto;html=1;entryX=0.5;entryY=0;entryDx=0;entryDy=0;" edge="1" parent="1" source="cHUV-iPteI2CGq9O3fU3-2" target="cHUV-iPteI2CGq9O3fU3-3">
          <mxGeometry relative="1" as="geometry" />
        </mxCell>
        <mxCell id="cHUV-iPteI2CGq9O3fU3-2" value="Khởi tạo các ngoại vi" style="rounded=1;whiteSpace=wrap;html=1;absoluteArcSize=1;arcSize=14;strokeWidth=2;" vertex="1" parent="1">
          <mxGeometry x="-320" y="80" width="130" height="40" as="geometry" />
        </mxCell>
        <mxCell id="cHUV-iPteI2CGq9O3fU3-8" style="edgeStyle=orthogonalEdgeStyle;rounded=0;orthogonalLoop=1;jettySize=auto;html=1;entryX=0.5;entryY=0;entryDx=0;entryDy=0;" edge="1" parent="1" source="cHUV-iPteI2CGq9O3fU3-3" target="cHUV-iPteI2CGq9O3fU3-4">
          <mxGeometry relative="1" as="geometry" />
        </mxCell>
        <mxCell id="cHUV-iPteI2CGq9O3fU3-3" value="Khởi tạo driver màn hình" style="rounded=1;whiteSpace=wrap;html=1;absoluteArcSize=1;arcSize=14;strokeWidth=2;" vertex="1" parent="1">
          <mxGeometry x="-320" y="160" width="130" height="40" as="geometry" />
        </mxCell>
        <mxCell id="cHUV-iPteI2CGq9O3fU3-9" style="edgeStyle=orthogonalEdgeStyle;rounded=0;orthogonalLoop=1;jettySize=auto;html=1;entryX=0.5;entryY=0;entryDx=0;entryDy=0;" edge="1" parent="1" source="cHUV-iPteI2CGq9O3fU3-4" target="cHUV-iPteI2CGq9O3fU3-5">
          <mxGeometry relative="1" as="geometry" />
        </mxCell>
        <mxCell id="cHUV-iPteI2CGq9O3fU3-4" value="Hiển thị giao diện" style="rounded=1;whiteSpace=wrap;html=1;absoluteArcSize=1;arcSize=14;strokeWidth=2;" vertex="1" parent="1">
          <mxGeometry x="-320" y="240" width="130" height="40" as="geometry" />
        </mxCell>
        <mxCell id="cHUV-iPteI2CGq9O3fU3-32" style="edgeStyle=orthogonalEdgeStyle;rounded=0;orthogonalLoop=1;jettySize=auto;html=1;entryX=0.5;entryY=0;entryDx=0;entryDy=0;exitX=0.5;exitY=1;exitDx=0;exitDy=0;" edge="1" parent="1" source="cHUV-iPteI2CGq9O3fU3-5" target="cHUV-iPteI2CGq9O3fU3-30">
          <mxGeometry relative="1" as="geometry" />
        </mxCell>
        <mxCell id="cHUV-iPteI2CGq9O3fU3-5" value="Khởi tạo mảng lưu giá trị sau khi tính toán" style="rounded=1;whiteSpace=wrap;html=1;absoluteArcSize=1;arcSize=14;strokeWidth=2;" vertex="1" parent="1">
          <mxGeometry x="-320" y="320" width="130" height="40" as="geometry" />
        </mxCell>
        <mxCell id="cHUV-iPteI2CGq9O3fU3-10" style="edgeStyle=orthogonalEdgeStyle;rounded=0;orthogonalLoop=1;jettySize=auto;html=1;entryX=0.5;entryY=0;entryDx=0;entryDy=0;" edge="1" target="cHUV-iPteI2CGq9O3fU3-13" parent="1">
          <mxGeometry relative="1" as="geometry">
            <mxPoint x="665" y="20" as="sourcePoint" />
          </mxGeometry>
        </mxCell>
        <mxCell id="cHUV-iPteI2CGq9O3fU3-11" value="Hiện thị toạ độ (x, y)" style="rounded=1;whiteSpace=wrap;html=1;absoluteArcSize=1;arcSize=14;strokeWidth=2;shape=label;backgroundOutline=1;" vertex="1" parent="1">
          <mxGeometry x="100" y="160" width="130" height="40" as="geometry" />
        </mxCell>
        <mxCell id="cHUV-iPteI2CGq9O3fU3-12" style="edgeStyle=orthogonalEdgeStyle;rounded=0;orthogonalLoop=1;jettySize=auto;html=1;entryX=0.5;entryY=0;entryDx=0;entryDy=0;" edge="1" source="cHUV-iPteI2CGq9O3fU3-13" target="cHUV-iPteI2CGq9O3fU3-15" parent="1">
          <mxGeometry relative="1" as="geometry" />
        </mxCell>
        <mxCell id="cHUV-iPteI2CGq9O3fU3-13" value="Khởi tạo driver màn hình" style="rounded=1;whiteSpace=wrap;html=1;absoluteArcSize=1;arcSize=14;strokeWidth=2;shape=process;backgroundOutline=1;" vertex="1" parent="1">
          <mxGeometry x="600" y="50" width="130" height="40" as="geometry" />
        </mxCell>
        <mxCell id="cHUV-iPteI2CGq9O3fU3-14" style="edgeStyle=orthogonalEdgeStyle;rounded=0;orthogonalLoop=1;jettySize=auto;html=1;entryX=0.5;entryY=0;entryDx=0;entryDy=0;" edge="1" source="cHUV-iPteI2CGq9O3fU3-15" target="cHUV-iPteI2CGq9O3fU3-16" parent="1">
          <mxGeometry relative="1" as="geometry" />
        </mxCell>
        <mxCell id="cHUV-iPteI2CGq9O3fU3-15" value="Hiển thị giao diện" style="rounded=1;whiteSpace=wrap;html=1;absoluteArcSize=1;arcSize=14;strokeWidth=2;shape=process;backgroundOutline=1;" vertex="1" parent="1">
          <mxGeometry x="600" y="140" width="130" height="40" as="geometry" />
        </mxCell>
        <mxCell id="cHUV-iPteI2CGq9O3fU3-16" value="Khởi tạo mảng lưu giá trị sau khi tính toán" style="rounded=1;whiteSpace=wrap;html=1;absoluteArcSize=1;arcSize=14;strokeWidth=2;shape=process;backgroundOutline=1;" vertex="1" parent="1">
          <mxGeometry x="600" y="220" width="130" height="40" as="geometry" />
        </mxCell>
        <mxCell id="cHUV-iPteI2CGq9O3fU3-22" style="edgeStyle=orthogonalEdgeStyle;rounded=0;orthogonalLoop=1;jettySize=auto;html=1;entryX=0.5;entryY=0;entryDx=0;entryDy=0;" edge="1" parent="1" source="cHUV-iPteI2CGq9O3fU3-19" target="cHUV-iPteI2CGq9O3fU3-21">
          <mxGeometry relative="1" as="geometry" />
        </mxCell>
        <mxCell id="cHUV-iPteI2CGq9O3fU3-27" style="edgeStyle=orthogonalEdgeStyle;rounded=0;orthogonalLoop=1;jettySize=auto;html=1;entryX=0.5;entryY=0;entryDx=0;entryDy=0;" edge="1" parent="1" source="cHUV-iPteI2CGq9O3fU3-19" target="cHUV-iPteI2CGq9O3fU3-11">
          <mxGeometry relative="1" as="geometry" />
        </mxCell>
        <mxCell id="cHUV-iPteI2CGq9O3fU3-19" value="Toạ độ cảm ứng&lt;div&gt;bằng 0?&lt;/div&gt;" style="strokeWidth=2;html=1;shape=mxgraph.flowchart.decision;whiteSpace=wrap;" vertex="1" parent="1">
          <mxGeometry x="-120" y="65" width="150" height="70" as="geometry" />
        </mxCell>
        <mxCell id="cHUV-iPteI2CGq9O3fU3-34" style="edgeStyle=orthogonalEdgeStyle;rounded=0;orthogonalLoop=1;jettySize=auto;html=1;exitX=0.5;exitY=1;exitDx=0;exitDy=0;" edge="1" parent="1" source="cHUV-iPteI2CGq9O3fU3-21">
          <mxGeometry relative="1" as="geometry">
            <mxPoint x="-150" y="270" as="targetPoint" />
            <Array as="points">
              <mxPoint x="-45" y="270" />
            </Array>
          </mxGeometry>
        </mxCell>
        <mxCell id="cHUV-iPteI2CGq9O3fU3-21" value="Hiển thị toạ độ (0, 0)" style="rounded=1;whiteSpace=wrap;html=1;absoluteArcSize=1;arcSize=14;strokeWidth=2;shape=label;backgroundOutline=1;" vertex="1" parent="1">
          <mxGeometry x="-110" y="160" width="130" height="40" as="geometry" />
        </mxCell>
        <mxCell id="cHUV-iPteI2CGq9O3fU3-25" value="Đúng" style="text;html=1;align=center;verticalAlign=middle;whiteSpace=wrap;rounded=0;" vertex="1" parent="1">
          <mxGeometry x="-50" y="130" width="60" height="30" as="geometry" />
        </mxCell>
        <mxCell id="cHUV-iPteI2CGq9O3fU3-26" value="Sai" style="text;html=1;align=center;verticalAlign=middle;whiteSpace=wrap;rounded=0;" vertex="1" parent="1">
          <mxGeometry x="20" y="70" width="60" height="30" as="geometry" />
        </mxCell>
        <mxCell id="cHUV-iPteI2CGq9O3fU3-30" value="Phát hiện vị trí cảm ứng" style="rounded=1;whiteSpace=wrap;html=1;absoluteArcSize=1;arcSize=14;strokeWidth=2;shape=label;backgroundOutline=1;" vertex="1" parent="1">
          <mxGeometry x="-110" width="130" height="40" as="geometry" />
        </mxCell>
        <mxCell id="cHUV-iPteI2CGq9O3fU3-31" style="edgeStyle=orthogonalEdgeStyle;rounded=0;orthogonalLoop=1;jettySize=auto;html=1;entryX=0.5;entryY=0;entryDx=0;entryDy=0;entryPerimeter=0;" edge="1" parent="1" source="cHUV-iPteI2CGq9O3fU3-30" target="cHUV-iPteI2CGq9O3fU3-19">
          <mxGeometry relative="1" as="geometry" />
        </mxCell>
        <mxCell id="cHUV-iPteI2CGq9O3fU3-44" style="edgeStyle=orthogonalEdgeStyle;rounded=0;orthogonalLoop=1;jettySize=auto;html=1;entryX=0;entryY=0.5;entryDx=0;entryDy=0;" edge="1" parent="1" source="cHUV-iPteI2CGq9O3fU3-35" target="cHUV-iPteI2CGq9O3fU3-41">
          <mxGeometry relative="1" as="geometry" />
        </mxCell>
        <mxCell id="cHUV-iPteI2CGq9O3fU3-35" value="Toạ độ nằm trong&amp;nbsp;&lt;div&gt;vùng vẽ&lt;/div&gt;" style="strokeWidth=2;html=1;shape=mxgraph.flowchart.decision;whiteSpace=wrap;" vertex="1" parent="1">
          <mxGeometry x="90" y="225" width="150" height="70" as="geometry" />
        </mxCell>
        <mxCell id="cHUV-iPteI2CGq9O3fU3-40" style="edgeStyle=orthogonalEdgeStyle;rounded=0;orthogonalLoop=1;jettySize=auto;html=1;" edge="1" parent="1" source="cHUV-iPteI2CGq9O3fU3-36" target="cHUV-iPteI2CGq9O3fU3-37">
          <mxGeometry relative="1" as="geometry" />
        </mxCell>
        <mxCell id="cHUV-iPteI2CGq9O3fU3-45" style="edgeStyle=orthogonalEdgeStyle;rounded=0;orthogonalLoop=1;jettySize=auto;html=1;entryX=0;entryY=0.5;entryDx=0;entryDy=0;" edge="1" parent="1" source="cHUV-iPteI2CGq9O3fU3-36" target="cHUV-iPteI2CGq9O3fU3-42">
          <mxGeometry relative="1" as="geometry" />
        </mxCell>
        <mxCell id="cHUV-iPteI2CGq9O3fU3-36" value="Toạ độ trong vùng&lt;div&gt;nút RESET&lt;/div&gt;" style="strokeWidth=2;html=1;shape=mxgraph.flowchart.decision;whiteSpace=wrap;" vertex="1" parent="1">
          <mxGeometry x="90" y="320" width="150" height="70" as="geometry" />
        </mxCell>
        <mxCell id="cHUV-iPteI2CGq9O3fU3-46" style="edgeStyle=orthogonalEdgeStyle;rounded=0;orthogonalLoop=1;jettySize=auto;html=1;entryX=0;entryY=0.5;entryDx=0;entryDy=0;" edge="1" parent="1" source="cHUV-iPteI2CGq9O3fU3-37" target="cHUV-iPteI2CGq9O3fU3-43">
          <mxGeometry relative="1" as="geometry" />
        </mxCell>
        <mxCell id="cHUV-iPteI2CGq9O3fU3-48" style="edgeStyle=orthogonalEdgeStyle;rounded=0;orthogonalLoop=1;jettySize=auto;html=1;exitX=0.5;exitY=1;exitDx=0;exitDy=0;exitPerimeter=0;" edge="1" parent="1" source="cHUV-iPteI2CGq9O3fU3-37">
          <mxGeometry relative="1" as="geometry">
            <mxPoint x="165" y="500" as="targetPoint" />
          </mxGeometry>
        </mxCell>
        <mxCell id="cHUV-iPteI2CGq9O3fU3-37" value="Toạ độ trong vùng&lt;div&gt;nút SENT&lt;/div&gt;" style="strokeWidth=2;html=1;shape=mxgraph.flowchart.decision;whiteSpace=wrap;" vertex="1" parent="1">
          <mxGeometry x="90" y="410" width="150" height="70" as="geometry" />
        </mxCell>
        <mxCell id="cHUV-iPteI2CGq9O3fU3-38" style="edgeStyle=orthogonalEdgeStyle;rounded=0;orthogonalLoop=1;jettySize=auto;html=1;entryX=0.5;entryY=0;entryDx=0;entryDy=0;entryPerimeter=0;" edge="1" parent="1" source="cHUV-iPteI2CGq9O3fU3-11" target="cHUV-iPteI2CGq9O3fU3-35">
          <mxGeometry relative="1" as="geometry" />
        </mxCell>
        <mxCell id="cHUV-iPteI2CGq9O3fU3-39" style="edgeStyle=orthogonalEdgeStyle;rounded=0;orthogonalLoop=1;jettySize=auto;html=1;entryX=0.5;entryY=0;entryDx=0;entryDy=0;entryPerimeter=0;" edge="1" parent="1" source="cHUV-iPteI2CGq9O3fU3-35" target="cHUV-iPteI2CGq9O3fU3-36">
          <mxGeometry relative="1" as="geometry" />
        </mxCell>
        <mxCell id="cHUV-iPteI2CGq9O3fU3-47" style="edgeStyle=orthogonalEdgeStyle;rounded=0;orthogonalLoop=1;jettySize=auto;html=1;exitX=1;exitY=0.5;exitDx=0;exitDy=0;" edge="1" parent="1" source="cHUV-iPteI2CGq9O3fU3-41">
          <mxGeometry relative="1" as="geometry">
            <mxPoint x="-70" y="270" as="targetPoint" />
            <Array as="points">
              <mxPoint x="510" y="260" />
              <mxPoint x="510" y="500" />
              <mxPoint x="-70" y="500" />
            </Array>
          </mxGeometry>
        </mxCell>
        <mxCell id="cHUV-iPteI2CGq9O3fU3-41" value="Hiển thị điểm ảnh và cập nhật input_mat" style="rounded=1;whiteSpace=wrap;html=1;absoluteArcSize=1;arcSize=14;strokeWidth=2;shape=label;backgroundOutline=1;" vertex="1" parent="1">
          <mxGeometry x="300" y="240" width="160" height="40" as="geometry" />
        </mxCell>
        <mxCell id="cHUV-iPteI2CGq9O3fU3-50" style="edgeStyle=orthogonalEdgeStyle;rounded=0;orthogonalLoop=1;jettySize=auto;html=1;" edge="1" parent="1" source="cHUV-iPteI2CGq9O3fU3-42">
          <mxGeometry relative="1" as="geometry">
            <mxPoint x="510" y="355" as="targetPoint" />
          </mxGeometry>
        </mxCell>
        <mxCell id="cHUV-iPteI2CGq9O3fU3-42" value="Thực hiện làm mới vùng vẽ và input_mat" style="rounded=1;whiteSpace=wrap;html=1;absoluteArcSize=1;arcSize=14;strokeWidth=2;shape=label;backgroundOutline=1;" vertex="1" parent="1">
          <mxGeometry x="300" y="335" width="160" height="40" as="geometry" />
        </mxCell>
        <mxCell id="cHUV-iPteI2CGq9O3fU3-49" style="edgeStyle=orthogonalEdgeStyle;rounded=0;orthogonalLoop=1;jettySize=auto;html=1;" edge="1" parent="1" source="cHUV-iPteI2CGq9O3fU3-43">
          <mxGeometry relative="1" as="geometry">
            <mxPoint x="510" y="445" as="targetPoint" />
          </mxGeometry>
        </mxCell>
        <mxCell id="cHUV-iPteI2CGq9O3fU3-43" value="Gửi input_mat tới máy tính bằng UART" style="rounded=1;whiteSpace=wrap;html=1;absoluteArcSize=1;arcSize=14;strokeWidth=2;shape=label;backgroundOutline=1;" vertex="1" parent="1">
          <mxGeometry x="300" y="425" width="160" height="40" as="geometry" />
        </mxCell>
        <mxCell id="cHUV-iPteI2CGq9O3fU3-52" value="" style="rounded=0;whiteSpace=wrap;html=1;" vertex="1" parent="1">
          <mxGeometry x="-370" y="590" width="950" height="570" as="geometry" />
        </mxCell>
        <mxCell id="cHUV-iPteI2CGq9O3fU3-53" style="edgeStyle=orthogonalEdgeStyle;rounded=0;orthogonalLoop=1;jettySize=auto;html=1;entryX=0.5;entryY=0;entryDx=0;entryDy=0;" edge="1" source="cHUV-iPteI2CGq9O3fU3-54" target="cHUV-iPteI2CGq9O3fU3-56" parent="1">
          <mxGeometry relative="1" as="geometry" />
        </mxCell>
        <mxCell id="cHUV-iPteI2CGq9O3fU3-54" value="Start" style="strokeWidth=2;html=1;shape=mxgraph.flowchart.start_2;whiteSpace=wrap;" vertex="1" parent="1">
          <mxGeometry x="-305" y="640" width="100" height="40" as="geometry" />
        </mxCell>
        <mxCell id="cHUV-iPteI2CGq9O3fU3-55" style="edgeStyle=orthogonalEdgeStyle;rounded=0;orthogonalLoop=1;jettySize=auto;html=1;entryX=0.5;entryY=0;entryDx=0;entryDy=0;" edge="1" source="cHUV-iPteI2CGq9O3fU3-56" target="cHUV-iPteI2CGq9O3fU3-58" parent="1">
          <mxGeometry relative="1" as="geometry" />
        </mxCell>
        <mxCell id="cHUV-iPteI2CGq9O3fU3-56" value="Khởi tạo các ngoại vi" style="rounded=1;whiteSpace=wrap;html=1;absoluteArcSize=1;arcSize=14;strokeWidth=2;" vertex="1" parent="1">
          <mxGeometry x="-320" y="720" width="130" height="40" as="geometry" />
        </mxCell>
        <mxCell id="cHUV-iPteI2CGq9O3fU3-57" style="edgeStyle=orthogonalEdgeStyle;rounded=0;orthogonalLoop=1;jettySize=auto;html=1;entryX=0.5;entryY=0;entryDx=0;entryDy=0;" edge="1" source="cHUV-iPteI2CGq9O3fU3-58" target="cHUV-iPteI2CGq9O3fU3-60" parent="1">
          <mxGeometry relative="1" as="geometry" />
        </mxCell>
        <mxCell id="cHUV-iPteI2CGq9O3fU3-58" value="Khởi tạo driver màn hình" style="rounded=1;whiteSpace=wrap;html=1;absoluteArcSize=1;arcSize=14;strokeWidth=2;" vertex="1" parent="1">
          <mxGeometry x="-320" y="800" width="130" height="40" as="geometry" />
        </mxCell>
        <mxCell id="cHUV-iPteI2CGq9O3fU3-59" style="edgeStyle=orthogonalEdgeStyle;rounded=0;orthogonalLoop=1;jettySize=auto;html=1;entryX=0.5;entryY=0;entryDx=0;entryDy=0;" edge="1" source="cHUV-iPteI2CGq9O3fU3-60" target="cHUV-iPteI2CGq9O3fU3-62" parent="1">
          <mxGeometry relative="1" as="geometry" />
        </mxCell>
        <mxCell id="cHUV-iPteI2CGq9O3fU3-60" value="Hiển thị giao diện" style="rounded=1;whiteSpace=wrap;html=1;absoluteArcSize=1;arcSize=14;strokeWidth=2;" vertex="1" parent="1">
          <mxGeometry x="-320" y="880" width="130" height="40" as="geometry" />
        </mxCell>
        <mxCell id="cHUV-iPteI2CGq9O3fU3-61" style="edgeStyle=orthogonalEdgeStyle;rounded=0;orthogonalLoop=1;jettySize=auto;html=1;entryX=0.5;entryY=0;entryDx=0;entryDy=0;exitX=0.5;exitY=1;exitDx=0;exitDy=0;" edge="1" source="cHUV-iPteI2CGq9O3fU3-62" target="cHUV-iPteI2CGq9O3fU3-71" parent="1">
          <mxGeometry relative="1" as="geometry" />
        </mxCell>
        <mxCell id="cHUV-iPteI2CGq9O3fU3-62" value="Khởi tạo mảng lưu giá trị sau khi tính toán" style="rounded=1;whiteSpace=wrap;html=1;absoluteArcSize=1;arcSize=14;strokeWidth=2;" vertex="1" parent="1">
          <mxGeometry x="-320" y="960" width="130" height="40" as="geometry" />
        </mxCell>
        <mxCell id="cHUV-iPteI2CGq9O3fU3-63" value="Hiện thị toạ độ (x, y)" style="rounded=1;whiteSpace=wrap;html=1;absoluteArcSize=1;arcSize=14;strokeWidth=2;shape=label;backgroundOutline=1;" vertex="1" parent="1">
          <mxGeometry x="100" y="800" width="130" height="40" as="geometry" />
        </mxCell>
        <mxCell id="cHUV-iPteI2CGq9O3fU3-64" style="edgeStyle=orthogonalEdgeStyle;rounded=0;orthogonalLoop=1;jettySize=auto;html=1;entryX=0.5;entryY=0;entryDx=0;entryDy=0;" edge="1" source="cHUV-iPteI2CGq9O3fU3-66" target="cHUV-iPteI2CGq9O3fU3-68" parent="1">
          <mxGeometry relative="1" as="geometry" />
        </mxCell>
        <mxCell id="cHUV-iPteI2CGq9O3fU3-65" style="edgeStyle=orthogonalEdgeStyle;rounded=0;orthogonalLoop=1;jettySize=auto;html=1;entryX=0.5;entryY=0;entryDx=0;entryDy=0;" edge="1" source="cHUV-iPteI2CGq9O3fU3-66" target="cHUV-iPteI2CGq9O3fU3-63" parent="1">
          <mxGeometry relative="1" as="geometry" />
        </mxCell>
        <mxCell id="cHUV-iPteI2CGq9O3fU3-66" value="Toạ độ cảm ứng&lt;div&gt;bằng 0?&lt;/div&gt;" style="strokeWidth=2;html=1;shape=mxgraph.flowchart.decision;whiteSpace=wrap;" vertex="1" parent="1">
          <mxGeometry x="-120" y="705" width="150" height="70" as="geometry" />
        </mxCell>
        <mxCell id="cHUV-iPteI2CGq9O3fU3-67" style="edgeStyle=orthogonalEdgeStyle;rounded=0;orthogonalLoop=1;jettySize=auto;html=1;exitX=0.5;exitY=1;exitDx=0;exitDy=0;" edge="1" source="cHUV-iPteI2CGq9O3fU3-68" parent="1">
          <mxGeometry relative="1" as="geometry">
            <mxPoint x="-150" y="910" as="targetPoint" />
            <Array as="points">
              <mxPoint x="-45" y="910" />
            </Array>
          </mxGeometry>
        </mxCell>
        <mxCell id="cHUV-iPteI2CGq9O3fU3-68" value="Hiển thị toạ độ (0, 0)" style="rounded=1;whiteSpace=wrap;html=1;absoluteArcSize=1;arcSize=14;strokeWidth=2;shape=label;backgroundOutline=1;" vertex="1" parent="1">
          <mxGeometry x="-110" y="800" width="130" height="40" as="geometry" />
        </mxCell>
        <mxCell id="cHUV-iPteI2CGq9O3fU3-69" value="Đúng" style="text;html=1;align=center;verticalAlign=middle;whiteSpace=wrap;rounded=0;" vertex="1" parent="1">
          <mxGeometry x="-50" y="770" width="60" height="30" as="geometry" />
        </mxCell>
        <mxCell id="cHUV-iPteI2CGq9O3fU3-70" value="Sai" style="text;html=1;align=center;verticalAlign=middle;whiteSpace=wrap;rounded=0;" vertex="1" parent="1">
          <mxGeometry x="20" y="710" width="60" height="30" as="geometry" />
        </mxCell>
        <mxCell id="cHUV-iPteI2CGq9O3fU3-71" value="Phát hiện vị trí cảm ứng" style="rounded=1;whiteSpace=wrap;html=1;absoluteArcSize=1;arcSize=14;strokeWidth=2;shape=label;backgroundOutline=1;" vertex="1" parent="1">
          <mxGeometry x="-110" y="640" width="130" height="40" as="geometry" />
        </mxCell>
        <mxCell id="cHUV-iPteI2CGq9O3fU3-72" style="edgeStyle=orthogonalEdgeStyle;rounded=0;orthogonalLoop=1;jettySize=auto;html=1;entryX=0.5;entryY=0;entryDx=0;entryDy=0;entryPerimeter=0;" edge="1" source="cHUV-iPteI2CGq9O3fU3-71" target="cHUV-iPteI2CGq9O3fU3-66" parent="1">
          <mxGeometry relative="1" as="geometry" />
        </mxCell>
        <mxCell id="cHUV-iPteI2CGq9O3fU3-73" style="edgeStyle=orthogonalEdgeStyle;rounded=0;orthogonalLoop=1;jettySize=auto;html=1;entryX=0;entryY=0.5;entryDx=0;entryDy=0;" edge="1" source="cHUV-iPteI2CGq9O3fU3-74" target="cHUV-iPteI2CGq9O3fU3-84" parent="1">
          <mxGeometry relative="1" as="geometry" />
        </mxCell>
        <mxCell id="cHUV-iPteI2CGq9O3fU3-74" value="Toạ độ nằm trong&amp;nbsp;&lt;div&gt;vùng vẽ&lt;/div&gt;" style="strokeWidth=2;html=1;shape=mxgraph.flowchart.decision;whiteSpace=wrap;" vertex="1" parent="1">
          <mxGeometry x="90" y="865" width="150" height="70" as="geometry" />
        </mxCell>
        <mxCell id="cHUV-iPteI2CGq9O3fU3-75" style="edgeStyle=orthogonalEdgeStyle;rounded=0;orthogonalLoop=1;jettySize=auto;html=1;" edge="1" source="cHUV-iPteI2CGq9O3fU3-77" target="cHUV-iPteI2CGq9O3fU3-80" parent="1">
          <mxGeometry relative="1" as="geometry" />
        </mxCell>
        <mxCell id="cHUV-iPteI2CGq9O3fU3-76" style="edgeStyle=orthogonalEdgeStyle;rounded=0;orthogonalLoop=1;jettySize=auto;html=1;entryX=0;entryY=0.5;entryDx=0;entryDy=0;" edge="1" source="cHUV-iPteI2CGq9O3fU3-77" target="cHUV-iPteI2CGq9O3fU3-86" parent="1">
          <mxGeometry relative="1" as="geometry" />
        </mxCell>
        <mxCell id="cHUV-iPteI2CGq9O3fU3-77" value="Toạ độ trong vùng&lt;div&gt;nút RESET&lt;/div&gt;" style="strokeWidth=2;html=1;shape=mxgraph.flowchart.decision;whiteSpace=wrap;" vertex="1" parent="1">
          <mxGeometry x="90" y="960" width="150" height="70" as="geometry" />
        </mxCell>
        <mxCell id="cHUV-iPteI2CGq9O3fU3-78" style="edgeStyle=orthogonalEdgeStyle;rounded=0;orthogonalLoop=1;jettySize=auto;html=1;entryX=0;entryY=0.5;entryDx=0;entryDy=0;" edge="1" source="cHUV-iPteI2CGq9O3fU3-80" target="cHUV-iPteI2CGq9O3fU3-88" parent="1">
          <mxGeometry relative="1" as="geometry" />
        </mxCell>
        <mxCell id="cHUV-iPteI2CGq9O3fU3-79" style="edgeStyle=orthogonalEdgeStyle;rounded=0;orthogonalLoop=1;jettySize=auto;html=1;exitX=0.5;exitY=1;exitDx=0;exitDy=0;exitPerimeter=0;" edge="1" source="cHUV-iPteI2CGq9O3fU3-80" parent="1">
          <mxGeometry relative="1" as="geometry">
            <mxPoint x="165" y="1140" as="targetPoint" />
          </mxGeometry>
        </mxCell>
        <mxCell id="cHUV-iPteI2CGq9O3fU3-80" value="Toạ độ trong vùng&lt;div&gt;nút CNN&lt;/div&gt;" style="strokeWidth=2;html=1;shape=mxgraph.flowchart.decision;whiteSpace=wrap;" vertex="1" parent="1">
          <mxGeometry x="90" y="1050" width="150" height="70" as="geometry" />
        </mxCell>
        <mxCell id="cHUV-iPteI2CGq9O3fU3-81" style="edgeStyle=orthogonalEdgeStyle;rounded=0;orthogonalLoop=1;jettySize=auto;html=1;entryX=0.5;entryY=0;entryDx=0;entryDy=0;entryPerimeter=0;" edge="1" source="cHUV-iPteI2CGq9O3fU3-63" target="cHUV-iPteI2CGq9O3fU3-74" parent="1">
          <mxGeometry relative="1" as="geometry" />
        </mxCell>
        <mxCell id="cHUV-iPteI2CGq9O3fU3-82" style="edgeStyle=orthogonalEdgeStyle;rounded=0;orthogonalLoop=1;jettySize=auto;html=1;entryX=0.5;entryY=0;entryDx=0;entryDy=0;entryPerimeter=0;" edge="1" source="cHUV-iPteI2CGq9O3fU3-74" target="cHUV-iPteI2CGq9O3fU3-77" parent="1">
          <mxGeometry relative="1" as="geometry" />
        </mxCell>
        <mxCell id="cHUV-iPteI2CGq9O3fU3-83" style="edgeStyle=orthogonalEdgeStyle;rounded=0;orthogonalLoop=1;jettySize=auto;html=1;exitX=1;exitY=0.5;exitDx=0;exitDy=0;" edge="1" source="cHUV-iPteI2CGq9O3fU3-84" parent="1">
          <mxGeometry relative="1" as="geometry">
            <mxPoint x="-70" y="910" as="targetPoint" />
            <Array as="points">
              <mxPoint x="510" y="900" />
              <mxPoint x="510" y="1140" />
              <mxPoint x="-70" y="1140" />
            </Array>
          </mxGeometry>
        </mxCell>
        <mxCell id="cHUV-iPteI2CGq9O3fU3-84" value="Hiển thị điểm ảnh và cập nhật input_mat" style="rounded=1;whiteSpace=wrap;html=1;absoluteArcSize=1;arcSize=14;strokeWidth=2;shape=label;backgroundOutline=1;" vertex="1" parent="1">
          <mxGeometry x="300" y="880" width="160" height="40" as="geometry" />
        </mxCell>
        <mxCell id="cHUV-iPteI2CGq9O3fU3-85" style="edgeStyle=orthogonalEdgeStyle;rounded=0;orthogonalLoop=1;jettySize=auto;html=1;" edge="1" source="cHUV-iPteI2CGq9O3fU3-86" parent="1">
          <mxGeometry relative="1" as="geometry">
            <mxPoint x="510" y="995" as="targetPoint" />
          </mxGeometry>
        </mxCell>
        <mxCell id="cHUV-iPteI2CGq9O3fU3-86" value="Thực hiện làm mới vùng vẽ và input_mat" style="rounded=1;whiteSpace=wrap;html=1;absoluteArcSize=1;arcSize=14;strokeWidth=2;shape=label;backgroundOutline=1;" vertex="1" parent="1">
          <mxGeometry x="300" y="975" width="160" height="40" as="geometry" />
        </mxCell>
        <mxCell id="cHUV-iPteI2CGq9O3fU3-87" style="edgeStyle=orthogonalEdgeStyle;rounded=0;orthogonalLoop=1;jettySize=auto;html=1;" edge="1" source="cHUV-iPteI2CGq9O3fU3-88" parent="1">
          <mxGeometry relative="1" as="geometry">
            <mxPoint x="510" y="1085" as="targetPoint" />
          </mxGeometry>
        </mxCell>
        <mxCell id="cHUV-iPteI2CGq9O3fU3-88" value="Tính toán và đưa ra kết quả dự đoán" style="rounded=1;whiteSpace=wrap;html=1;absoluteArcSize=1;arcSize=14;strokeWidth=2;shape=label;backgroundOutline=1;" vertex="1" parent="1">
          <mxGeometry x="300" y="1065" width="160" height="40" as="geometry" />
        </mxCell>
        <mxCell id="cHUV-iPteI2CGq9O3fU3-89" value="Sai" style="text;html=1;align=center;verticalAlign=middle;whiteSpace=wrap;rounded=0;" vertex="1" parent="1">
          <mxGeometry x="170" y="290" width="60" height="30" as="geometry" />
        </mxCell>
        <mxCell id="cHUV-iPteI2CGq9O3fU3-90" value="Sai" style="text;html=1;align=center;verticalAlign=middle;whiteSpace=wrap;rounded=0;" vertex="1" parent="1">
          <mxGeometry x="170" y="380" width="60" height="30" as="geometry" />
        </mxCell>
        <mxCell id="cHUV-iPteI2CGq9O3fU3-91" value="Sai" style="text;html=1;align=center;verticalAlign=middle;whiteSpace=wrap;rounded=0;" vertex="1" parent="1">
          <mxGeometry x="170" y="470" width="60" height="30" as="geometry" />
        </mxCell>
        <mxCell id="cHUV-iPteI2CGq9O3fU3-92" value="Đúng" style="text;html=1;align=center;verticalAlign=middle;whiteSpace=wrap;rounded=0;" vertex="1" parent="1">
          <mxGeometry x="230" y="230" width="60" height="30" as="geometry" />
        </mxCell>
        <mxCell id="cHUV-iPteI2CGq9O3fU3-93" value="Đúng" style="text;html=1;align=center;verticalAlign=middle;whiteSpace=wrap;rounded=0;" vertex="1" parent="1">
          <mxGeometry x="230" y="325" width="60" height="30" as="geometry" />
        </mxCell>
        <mxCell id="cHUV-iPteI2CGq9O3fU3-94" value="Đúng" style="text;html=1;align=center;verticalAlign=middle;whiteSpace=wrap;rounded=0;" vertex="1" parent="1">
          <mxGeometry x="230" y="420" width="60" height="30" as="geometry" />
        </mxCell>
        <mxCell id="cHUV-iPteI2CGq9O3fU3-95" value="Đúng" style="text;html=1;align=center;verticalAlign=middle;whiteSpace=wrap;rounded=0;" vertex="1" parent="1">
          <mxGeometry x="230" y="870" width="60" height="30" as="geometry" />
        </mxCell>
        <mxCell id="cHUV-iPteI2CGq9O3fU3-96" value="Sai" style="text;html=1;align=center;verticalAlign=middle;whiteSpace=wrap;rounded=0;" vertex="1" parent="1">
          <mxGeometry x="170" y="930" width="60" height="30" as="geometry" />
        </mxCell>
        <mxCell id="cHUV-iPteI2CGq9O3fU3-97" value="Đúng" style="text;html=1;align=center;verticalAlign=middle;whiteSpace=wrap;rounded=0;" vertex="1" parent="1">
          <mxGeometry x="230" y="960" width="60" height="30" as="geometry" />
        </mxCell>
        <mxCell id="cHUV-iPteI2CGq9O3fU3-98" value="Sai" style="text;html=1;align=center;verticalAlign=middle;whiteSpace=wrap;rounded=0;" vertex="1" parent="1">
          <mxGeometry x="170" y="1030" width="60" height="30" as="geometry" />
        </mxCell>
        <mxCell id="cHUV-iPteI2CGq9O3fU3-99" value="Đúng" style="text;html=1;align=center;verticalAlign=middle;whiteSpace=wrap;rounded=0;" vertex="1" parent="1">
          <mxGeometry x="230" y="1060" width="60" height="30" as="geometry" />
        </mxCell>
        <mxCell id="cHUV-iPteI2CGq9O3fU3-100" value="Sai" style="text;html=1;align=center;verticalAlign=middle;whiteSpace=wrap;rounded=0;" vertex="1" parent="1">
          <mxGeometry x="170" y="1110" width="60" height="30" as="geometry" />
        </mxCell>
      </root>
    </mxGraphModel>
  </diagram>
</mxfile>
